<svg width="800" height="500" xmlns="http://www.w3.org/2000/svg">
<line x1="60" y1="440" x2="740" y2="440" stroke="black"/>
<line x1="60" y1="440" x2="60" y2="60" stroke="black"/>
<text x="400.0" y="490" text-anchor="middle" font-size="12">Stakeholders</text>
<text x="15" y="250.0" transform="rotate(-90,15,250.0)" text-anchor="middle" font-size="12">INT8 ops/sec</text>
<circle cx="347.87" cy="109.56" r="4" fill="#1f77b4"/>
<text x="352.87" y="109.56" font-size="10" alignment-baseline="middle">Amazon</text>
<circle cx="324.15" cy="174.04" r="4" fill="#1f77b4"/>
<text x="329.15" y="174.04" font-size="10" alignment-baseline="middle">Apple</text>
<circle cx="623.22" cy="273.16" r="4" fill="#d62728"/>
<text x="628.22" y="273.16" font-size="10" alignment-baseline="middle">California State University</text>
<circle cx="60.00" cy="60.00" r="4" fill="#2ca02c"/>
<text x="65.00" y="60.00" font-size="10" alignment-baseline="middle">Elon Musk</text>
<circle cx="60.00" cy="440.00" r="4" fill="#ff7f0e"/>
<text x="65.00" y="440.00" font-size="10" alignment-baseline="middle">iPhone 16</text>
<circle cx="347.87" cy="139.40" r="4" fill="#1f77b4"/>
<text x="352.87" y="139.40" font-size="10" alignment-baseline="middle">Meta</text>
<circle cx="347.87" cy="60.00" r="4" fill="#1f77b4"/>
<text x="352.87" y="60.00" font-size="10" alignment-baseline="middle">Microsoft</text>
<circle cx="720.62" cy="139.40" r="4" fill="#9467bd"/>
<text x="725.62" y="139.40" font-size="10" alignment-baseline="middle">People's Republic of China</text>
<circle cx="740.00" cy="154.32" r="4" fill="#9467bd"/>
<text x="745.00" y="154.32" font-size="10" alignment-baseline="middle">United States Federal Government</text>
<circle cx="666.32" cy="159.12" r="4" fill="#d62728"/>
<text x="671.32" y="159.12" font-size="10" alignment-baseline="middle">University of California</text>
<circle cx="60.00" cy="288.08" r="4" fill="#ff7f0e"/>
<text x="65.00" y="288.08" font-size="10" alignment-baseline="middle">RTX 4090 PC</text>
<circle cx="347.87" cy="89.84" r="4" fill="#1f77b4"/>
<text x="352.87" y="89.84" font-size="10" alignment-baseline="middle">Alphabet</text>
<circle cx="623.22" cy="159.12" r="4" fill="#8c564b"/>
<text x="628.22" y="159.12" font-size="10" alignment-baseline="middle">Government of Japan</text>
<circle cx="700" cy="60" r="5" fill="#d62728"/>
<text x="710" y="60" font-size="10" alignment-baseline="middle">academia</text>
<circle cx="700" cy="80" r="5" fill="#9467bd"/>
<text x="710" y="80" font-size="10" alignment-baseline="middle">empires</text>
<circle cx="700" cy="100" r="5" fill="#ff7f0e"/>
<text x="710" y="100" font-size="10" alignment-baseline="middle">individuals</text>
<circle cx="700" cy="120" r="5" fill="#1f77b4"/>
<text x="710" y="120" font-size="10" alignment-baseline="middle">institutions</text>
<circle cx="700" cy="140" r="5" fill="#2ca02c"/>
<text x="710" y="140" font-size="10" alignment-baseline="middle">oligarchs</text>
<circle cx="700" cy="160" r="5" fill="#8c564b"/>
<text x="710" y="160" font-size="10" alignment-baseline="middle">state-actors</text>
</svg>
