<svg xmlns="http://www.w3.org/2000/svg" width="800" height="500" viewBox="0 0 800 500">
<style>text{font-size:12px;font-family:Arial}</style>
<rect x="0" y="0" width="800" height="500" fill="white" stroke="none"/>
<line x1="60" y1="440" x2="740" y2="440" stroke="black"/>
<line x1="60" y1="60" x2="60" y2="440" stroke="black"/>
<circle cx="342.81108897475485" cy="111.03081002401035" r="4" fill="blue"/>
<text x="347.81108897475485" y="106.03081002401035" fill="blue">Amazon</text>
<circle cx="320.3801405288268" cy="174.78448862237718" r="4" fill="blue"/>
<text x="325.3801405288268" y="169.78448862237718" fill="blue">Apple</text>
<circle cx="603.1912295035818" cy="272.7894213462074" r="4" fill="red"/>
<text x="608.1912295035818" y="267.7894213462074" fill="red">California State University</text>
<circle cx="70.59110281716931" cy="62.028343662095324" r="4" fill="green"/>
<text x="75.59110281716931" y="57.028343662095324" fill="green">Elon Musk</text>
<circle cx="70.59110281716931" cy="437.7577701079948" r="4" fill="orange"/>
<text x="75.59110281716931" y="432.7577701079948" fill="orange">iPhone 16</text>
<circle cx="342.81108897475485" cy="140.5332344969138" r="4" fill="blue"/>
<text x="347.81108897475485" y="135.5332344969138" fill="blue">Meta</text>
<circle cx="342.81108897475485" cy="62.028343662095324" r="4" fill="blue"/>
<text x="347.81108897475485" y="57.028343662095324" fill="blue">Microsoft</text>
<circle cx="713.6264872739373" cy="155.28444673336548" r="4" fill="purple"/>
<text x="718.6264872739373" y="150.28444673336548" fill="purple">United States Federal Government</text>
<circle cx="643.9495973032865" cy="160.0332763859255" r="4" fill="red"/>
<text x="648.9495973032865" y="155.0332763859255" fill="red">University of California</text>
<circle cx="70.59110281716931" cy="287.5406335826591" r="4" fill="orange"/>
<text x="75.59110281716931" y="282.5406335826591" fill="orange">RTX 4090 PC</text>
<text x="400.0" y="480" text-anchor="middle">Number of stakeholders (log)</text>
<text x="20" y="250.0" transform="rotate(-90 20 250.0)" text-anchor="middle">Estimated int8 ops per second (log)</text>
</svg>